# xmcd
#
# Track frame offsets: 
#        150
#        15784
#        31639
#        46897
#        70658
#        91139
#        108856
#        121763
#        140181
#        155633
#
# Disc length: 2339 seconds
#
# Revision: 0
# Processed by: cddbd v1.5.2PL0 Copyright (c) Steve Scherf et al.
# Submitted via: ExactAudioCopy v1.0b4
#
DISCID=6e09210a
DTITLE=Sandy Carroll - Just As I Am
DYEAR=2011
DGENRE=Electric Blues
TTITLE0=Blessed Be
TTITLE1=Help Mother Nature
TTITLE2=Heartfixin'man
TTITLE3=Waiting For The Storm
TTITLE4=Romeo And Juliet
TTITLE5=Runnin' Out Of Grace
TTITLE6=Slow Kisses
TTITLE7=Messin' With Me
TTITLE8=Baby Comin' Home
TTITLE9=Just As I Am
EXTD=
EXTT0=
EXTT1=
EXTT2=
EXTT3=
EXTT4=
EXTT5=
EXTT6=
EXTT7=
EXTT8=
EXTT9=
PLAYORDER=
